<svg id="Layer_1" data-name="Layer 1" xmlns="http://www.w3.org/2000/svg" viewBox="0 0 254.95 207.57"><defs><style>.cls-1{fill:#1a1a1a;}.cls-2{fill:#f7931e;}</style></defs><title>b_logo_black</title><path class="cls-1" d="M237.3,204.76a69.87,69.87,0,0,1,26.51,26.51,78.16,78.16,0,0,1,0,75.17,69.78,69.78,0,0,1-26.51,26.5,78.35,78.35,0,0,1-74.77.27,69.62,69.62,0,0,1-26.51-26,73.5,73.5,0,0,1-10-36.93V142.91a7.6,7.6,0,0,1,2.24-5.8,8,8,0,0,1,5.67-2.11,7.3,7.3,0,0,1,7.92,7.91V225.2a61.29,61.29,0,0,1,23.87-22,71.17,71.17,0,0,1,33.89-8.05A74.75,74.75,0,0,1,237.3,204.76ZM229.13,320A56.75,56.75,0,0,0,250,298.79a62.92,62.92,0,0,0,0-60.14,56,56,0,0,0-20.83-21.1,60.93,60.93,0,0,0-59.08,0,55,55,0,0,0-20.71,21.1,64,64,0,0,0,0,60.14A55.71,55.71,0,0,0,170.05,320a60,60,0,0,0,59.08,0Z" transform="translate(-126 -135)"/><rect class="cls-2" x="191.79" y="144.41" width="63.16" height="63.16"/></svg>